<?xml version="1.0" standalone="no"?>
<!DOCTYPE svg PUBLIC "-//W3C//DTD SVG 20010904//EN"
 "http://www.w3.org/TR/2001/REC-SVG-20010904/DTD/svg10.dtd">
<svg version="1.0" xmlns="http://www.w3.org/2000/svg"
 width="2000.000000pt" height="448.000000pt" viewBox="0 0 2000.000000 448.000000"
 preserveAspectRatio="xMidYMid meet">
<metadata>
Created by potrace 1.16, written by Peter Selinger 2001-2019
</metadata>
<g transform="translate(0.000000,448.000000) scale(0.100000,-0.100000)"
fill="#000000" stroke="none">
<path d="M350 2240 l0 -2170 2110 0 2110 0 0 2170 0 2170 -2110 0 -2110 0 0
-2170z m2960 212 l0 -578 105 -126 105 -126 0 -76 0 -76 -1095 0 -1095 0 0 81
0 80 100 119 100 119 0 580 0 581 890 0 890 0 0 -578z"/>
<path d="M1652 2463 l3 -448 768 -3 767 -2 0 450 0 450 -770 0 -770 0 2 -447z"/>
<path d="M5030 2240 l0 -2170 7310 0 7310 0 0 2170 0 2170 -7310 0 -7310 0 0
-2170z m9021 -388 c5 -2 9 284 9 667 l0 672 113 -3 112 -3 3 -967 c1 -554 -2
-968 -7 -968 -5 0 -300 313 -657 695 l-649 696 -5 -668 -5 -668 -112 -3 -113
-3 0 976 0 975 651 -697 c358 -384 655 -699 660 -701z m-3791 1348 c106 -27
265 -103 350 -168 107 -81 102 -70 74 -192 -14 -58 -29 -122 -35 -143 l-10
-37 -48 62 c-87 114 -239 215 -381 254 -81 22 -280 25 -360 6 -82 -20 -227
-94 -293 -149 -118 -99 -210 -243 -248 -390 -41 -159 -22 -372 46 -521 56
-121 182 -261 297 -330 216 -129 519 -129 736 0 66 39 193 156 224 206 27 44
26 44 68 -128 l31 -125 -38 -34 c-122 -108 -289 -191 -458 -227 -92 -20 -298
-20 -390 0 -306 66 -564 266 -695 540 -123 259 -125 573 -6 831 136 295 429
514 751 565 93 14 287 4 385 -20z m5632 1 c185 -48 334 -133 468 -270 135
-136 228 -307 264 -483 18 -89 21 -285 5 -374 -67 -380 -369 -697 -749 -785
-132 -31 -347 -27 -474 8 -359 99 -629 379 -713 741 -28 121 -23 329 10 453
26 99 83 225 139 307 46 67 173 197 243 247 110 78 257 142 380 164 33 6 71
13 85 15 58 11 268 -4 342 -23z m-8402 -121 l0 -110 -250 0 -250 0 0 -835 0
-835 -120 0 -120 0 0 835 0 835 -252 2 -253 3 -3 108 -3 107 626 0 625 0 0
-110z m1298 3 l-3 -108 -348 -3 -347 -2 2 -198 3 -197 273 -3 272 -2 0 -105 0
-105 -275 0 -275 0 0 -420 0 -420 350 0 351 0 -3 -107 -3 -108 -467 -3 -468
-2 0 945 0 945 470 0 471 0 -3 -107z m2512 -203 l0 -310 335 0 335 0 0 310 0
310 120 0 120 0 0 -945 0 -945 -120 0 -120 0 0 530 0 530 -335 0 -335 0 0
-530 0 -530 -120 0 -120 0 0 945 0 945 120 0 120 0 0 -310z m6148 57 c93 -139
183 -280 202 -315 l33 -62 44 77 c39 69 140 222 314 476 l53 77 133 0 c73 0
133 -2 133 -5 0 -3 -118 -176 -261 -383 -144 -207 -264 -382 -266 -389 -3 -7
156 -247 354 -534 197 -288 366 -535 376 -551 l19 -28 -146 0 -145 0 -64 93
c-147 212 -463 688 -505 761 -34 58 -48 76 -54 65 -5 -8 -29 -49 -54 -92 -25
-42 -160 -245 -299 -450 l-252 -372 -142 -3 c-118 -2 -141 0 -134 11 4 7 174
253 376 546 231 334 367 538 363 547 -3 8 -123 186 -266 394 -143 209 -260
382 -260 385 0 3 63 5 140 5 l140 0 168 -253z"/>
<path d="M15538 2990 c-238 -43 -429 -187 -537 -405 -57 -113 -75 -195 -75
-340 0 -144 16 -214 78 -340 140 -283 430 -443 736 -405 179 21 325 94 446
223 84 89 127 159 167 274 26 76 31 106 35 215 5 158 -12 247 -73 373 -92 190
-247 322 -450 385 -78 24 -249 35 -327 20z"/>
</g>
</svg>
